<?xml version="1.0" encoding="utf-8"?>
<!-- Generator: Adobe Illustrator 16.0.0, SVG Export Plug-In . SVG Version: 6.00 Build 0)  -->
<!DOCTYPE svg PUBLIC "-//W3C//DTD SVG 1.0//EN" "http://www.w3.org/TR/2001/REC-SVG-20010904/DTD/svg10.dtd">
<svg version="1.0" id="Layer_1" xmlns="http://www.w3.org/2000/svg" xmlns:xlink="http://www.w3.org/1999/xlink" x="0px" y="0px"
	 width="800px" height="800px" viewBox="0 0 800 800" enable-background="new 0 0 800 800" xml:space="preserve">
<g>
	<polygon fill="#1E1E1E" points="404.089,236.407 449.722,236.407 449.722,363.468 563.132,363.468 563.132,236.407 
		681.692,236.407 681.692,599.622 562.712,599.622 562.712,475.004 449.346,475.004 449.346,599.622 335.223,599.622 	"/>
	<polygon fill="#1E1E1E" points="291.438,599.622 245.775,599.622 245.775,475.035 132.378,475.035 132.378,599.622 13.832,599.622 
		13.832,236.407 132.768,236.407 132.768,363.485 246.18,363.485 246.18,236.407 360.662,236.407 	"/>
	<path fill="#1E1E1E" d="M751.14,272.095c19.333,0,35.028-16.03,35.028-35.851c0-19.836-15.691-35.866-35.028-35.866
		c-19.367,0-35.068,16.03-35.068,35.866C716.071,256.064,731.772,272.095,751.14,272.095z M724.131,236.374
		c0-15.48,12.273-28.045,27.431-28.045c15.074,0,27.332,12.564,27.332,28.045c0,15.464-12.258,28.014-27.332,28.014
		C736.405,264.388,724.131,251.838,724.131,236.374z"/>
	<path fill="#1E1E1E" d="M746.642,235.322h6.246c2.934,0,5.068-1.766,5.068-4.713c0-2.866-1.911-4.712-5.905-4.712h-5.409V235.322
		L746.642,235.322z M740.875,220.699h12.762c6.497,0,10.313,3.983,10.313,9.489c0,7.012-4.582,8.662-6.055,9.213l6.838,12.647
		h-6.652l-5.945-11.529h-5.49v11.529h-5.768L740.875,220.699L740.875,220.699z"/>
</g>
</svg>
